<svg id="svg" version="1.1" xmlns="http://www.w3.org/2000/svg" xmlns:xlink="http://www.w3.org/1999/xlink" width="400" height="400" viewBox="0, 0, 400,400"><g id="svgg"><path id="path0" d="M196.200 117.200 C 196.060 117.640,195.688 118.000,195.373 118.000 C 195.058 118.000,194.800 118.360,194.800 118.800 C 194.800 119.333,194.533 119.600,194.000 119.600 C 193.467 119.600,193.200 119.867,193.200 120.400 C 193.200 120.933,192.933 121.200,192.400 121.200 C 191.867 121.200,191.600 121.467,191.600 122.000 C 191.600 122.533,191.333 122.800,190.800 122.800 C 190.267 122.800,190.000 123.067,190.000 123.600 C 190.000 124.133,189.733 124.400,189.200 124.400 C 188.667 124.400,188.400 124.667,188.400 125.200 C 188.400 125.733,188.133 126.000,187.600 126.000 C 187.067 126.000,186.800 126.267,186.800 126.800 C 186.800 127.333,186.533 127.600,186.000 127.600 C 185.467 127.600,185.200 127.867,185.200 128.400 C 185.200 128.933,184.933 129.200,184.400 129.200 C 183.960 129.200,183.600 129.449,183.600 129.753 C 183.600 130.058,183.240 130.401,182.800 130.516 C 182.360 130.631,182.000 130.991,182.000 131.316 C 182.000 131.641,181.640 132.001,181.200 132.116 C 180.760 132.231,180.400 132.612,180.400 132.963 C 180.400 133.313,180.130 133.600,179.800 133.600 C 179.128 133.600,179.021 134.678,179.553 136.074 C 179.970 137.165,198.802 156.028,200.020 156.573 C 201.298 157.145,220.618 137.741,221.024 135.475 C 221.261 134.156,221.189 133.922,220.486 133.738 C 220.039 133.622,219.584 133.183,219.474 132.763 C 219.365 132.343,219.009 132.000,218.684 132.000 C 218.359 132.000,217.999 131.640,217.884 131.200 C 217.769 130.760,217.388 130.400,217.037 130.400 C 216.687 130.400,216.400 130.130,216.400 129.800 C 216.400 129.467,216.044 129.200,215.600 129.200 C 215.067 129.200,214.800 128.933,214.800 128.400 C 214.800 127.867,214.533 127.600,214.000 127.600 C 213.467 127.600,213.200 127.333,213.200 126.800 C 213.200 126.267,212.933 126.000,212.400 126.000 C 211.867 126.000,211.600 125.733,211.600 125.200 C 211.600 124.667,211.333 124.400,210.800 124.400 C 210.267 124.400,210.000 124.133,210.000 123.600 C 210.000 123.067,209.733 122.800,209.200 122.800 C 208.667 122.800,208.400 122.533,208.400 122.000 C 208.400 121.560,208.151 121.200,207.847 121.200 C 207.542 121.200,207.199 120.840,207.084 120.400 C 206.969 119.960,206.588 119.600,206.237 119.600 C 205.887 119.600,205.600 119.313,205.600 118.963 C 205.600 118.612,205.257 118.235,204.837 118.126 C 204.417 118.016,203.984 117.583,203.874 117.163 C 203.564 115.975,196.578 116.009,196.200 117.200 M179.516 178.691 C 168.122 190.071,158.800 199.660,158.800 200.000 C 158.800 201.274,200.678 242.573,201.131 241.745 C 201.355 241.335,210.642 231.910,221.768 220.800 C 232.895 209.690,241.996 200.330,241.993 200.000 C 241.990 199.670,232.811 190.228,221.594 179.018 C 210.377 167.807,201.200 158.492,201.200 158.318 C 201.200 157.215,198.135 160.095,179.516 178.691 M196.316 246.700 C 188.347 254.488,179.785 263.267,179.529 263.913 C 179.056 265.105,179.173 266.400,179.753 266.400 C 180.058 266.400,180.401 266.760,180.516 267.200 C 180.631 267.640,181.012 268.000,181.363 268.000 C 181.713 268.000,182.000 268.287,182.000 268.637 C 182.000 268.988,182.343 269.365,182.763 269.474 C 183.183 269.584,183.616 270.017,183.726 270.437 C 183.835 270.857,184.191 271.200,184.516 271.200 C 184.841 271.200,185.201 271.560,185.316 272.000 C 185.431 272.440,185.791 272.800,186.116 272.800 C 186.441 272.800,186.801 273.160,186.916 273.600 C 187.031 274.040,187.412 274.400,187.763 274.400 C 188.113 274.400,188.400 274.670,188.400 275.000 C 188.400 275.333,188.756 275.600,189.200 275.600 C 189.733 275.600,190.000 275.867,190.000 276.400 C 190.000 276.933,190.267 277.200,190.800 277.200 C 191.333 277.200,191.600 277.467,191.600 278.000 C 191.600 278.533,191.867 278.800,192.400 278.800 C 192.933 278.800,193.200 279.067,193.200 279.600 C 193.200 280.133,193.467 280.400,194.000 280.400 C 194.533 280.400,194.800 280.667,194.800 281.200 C 194.800 281.640,195.049 282.000,195.353 282.000 C 195.658 282.000,196.001 282.360,196.116 282.800 C 196.307 283.530,196.662 283.600,200.163 283.600 C 203.733 283.600,204.000 283.544,204.000 282.800 C 204.000 282.267,204.267 282.000,204.800 282.000 C 205.333 282.000,205.600 281.733,205.600 281.200 C 205.600 280.667,205.867 280.400,206.400 280.400 C 206.933 280.400,207.200 280.133,207.200 279.600 C 207.200 279.156,207.467 278.800,207.800 278.800 C 208.133 278.800,208.400 278.444,208.400 278.000 C 208.400 277.467,208.667 277.200,209.200 277.200 C 209.733 277.200,210.000 276.933,210.000 276.400 C 210.000 275.867,210.267 275.600,210.800 275.600 C 211.244 275.600,211.600 275.333,211.600 275.000 C 211.600 274.667,211.956 274.400,212.400 274.400 C 212.933 274.400,213.200 274.133,213.200 273.600 C 213.200 273.067,213.467 272.800,214.000 272.800 C 214.533 272.800,214.800 272.533,214.800 272.000 C 214.800 271.467,215.067 271.200,215.600 271.200 C 216.133 271.200,216.400 270.933,216.400 270.400 C 216.400 269.867,216.667 269.600,217.200 269.600 C 217.733 269.600,218.000 269.333,218.000 268.800 C 218.000 268.267,218.267 268.000,218.800 268.000 C 219.333 268.000,219.600 267.733,219.600 267.200 C 219.600 266.651,219.867 266.400,220.451 266.400 C 221.227 266.400,221.279 266.251,221.036 264.700 C 220.760 262.931,201.868 243.200,200.451 243.200 C 200.147 243.200,198.285 244.775,196.316 246.700 " stroke="none" fill="#9eee8c" fill-rule="evenodd"></path><path id="path1" d="M154.000 117.200 C 154.000 117.733,153.733 118.000,153.200 118.000 C 152.667 118.000,152.400 118.267,152.400 118.800 C 152.400 119.333,152.133 119.600,151.600 119.600 C 151.067 119.600,150.800 119.867,150.800 120.400 C 150.800 120.933,150.533 121.200,150.000 121.200 C 149.467 121.200,149.200 121.467,149.200 122.000 C 149.200 122.533,148.933 122.800,148.400 122.800 C 147.867 122.800,147.600 123.067,147.600 123.600 C 147.600 124.133,147.333 124.400,146.800 124.400 C 146.267 124.400,146.000 124.667,146.000 125.200 C 146.000 125.644,145.733 126.000,145.400 126.000 C 145.067 126.000,144.800 126.356,144.800 126.800 C 144.800 127.333,144.533 127.600,144.000 127.600 C 143.467 127.600,143.200 127.867,143.200 128.400 C 143.200 128.933,142.933 129.200,142.400 129.200 C 141.956 129.200,141.600 129.467,141.600 129.800 C 141.600 130.133,141.244 130.400,140.800 130.400 C 140.267 130.400,140.000 130.667,140.000 131.200 C 140.000 131.733,139.733 132.000,139.200 132.000 C 138.667 132.000,138.400 132.267,138.400 132.800 C 138.400 133.333,138.133 133.600,137.600 133.600 C 137.067 133.600,136.800 133.867,136.800 134.400 C 136.800 134.933,136.533 135.200,136.000 135.200 C 135.467 135.200,135.200 135.467,135.200 136.000 C 135.200 136.533,134.933 136.800,134.400 136.800 C 133.867 136.800,133.600 137.067,133.600 137.600 C 133.600 138.133,133.333 138.400,132.800 138.400 C 132.267 138.400,132.000 138.667,132.000 139.200 C 132.000 139.733,131.733 140.000,131.200 140.000 C 130.667 140.000,130.400 140.267,130.400 140.800 C 130.400 141.244,130.133 141.600,129.800 141.600 C 129.467 141.600,129.200 141.956,129.200 142.400 C 129.200 142.933,128.933 143.200,128.400 143.200 C 127.867 143.200,127.600 143.467,127.600 144.000 C 127.600 144.533,127.333 144.800,126.800 144.800 C 126.356 144.800,126.000 145.067,126.000 145.400 C 126.000 145.733,125.644 146.000,125.200 146.000 C 124.667 146.000,124.400 146.267,124.400 146.800 C 124.400 147.333,124.133 147.600,123.600 147.600 C 123.067 147.600,122.800 147.867,122.800 148.400 C 122.800 148.933,122.533 149.200,122.000 149.200 C 121.467 149.200,121.200 149.467,121.200 150.000 C 121.200 150.533,120.933 150.800,120.400 150.800 C 119.867 150.800,119.600 151.067,119.600 151.600 C 119.600 152.133,119.333 152.400,118.800 152.400 C 118.267 152.400,118.000 152.667,118.000 153.200 C 118.000 153.733,117.733 154.000,117.200 154.000 C 116.667 154.000,116.400 154.267,116.400 154.800 C 116.400 155.333,116.133 155.600,115.600 155.600 C 115.067 155.600,114.800 155.867,114.800 156.400 C 114.800 156.933,114.533 157.200,114.000 157.200 C 113.467 157.200,113.200 157.467,113.200 158.000 C 113.200 158.444,112.933 158.800,112.600 158.800 C 112.267 158.800,112.000 159.156,112.000 159.600 C 112.000 160.133,111.733 160.400,111.200 160.400 C 110.667 160.400,110.400 160.667,110.400 161.200 C 110.400 161.733,110.133 162.000,109.600 162.000 C 109.156 162.000,108.800 162.267,108.800 162.600 C 108.800 162.933,108.444 163.200,108.000 163.200 C 107.467 163.200,107.200 163.467,107.200 164.000 C 107.200 164.533,106.933 164.800,106.400 164.800 C 105.867 164.800,105.600 165.067,105.600 165.600 C 105.600 166.133,105.333 166.400,104.800 166.400 C 104.267 166.400,104.000 166.667,104.000 167.200 C 104.000 167.733,103.733 168.000,103.200 168.000 C 102.667 168.000,102.400 168.267,102.400 168.800 C 102.400 169.333,102.133 169.600,101.600 169.600 C 101.067 169.600,100.800 169.867,100.800 170.400 C 100.800 170.933,100.533 171.200,100.000 171.200 C 99.467 171.200,99.200 171.467,99.200 172.000 C 99.200 172.533,98.933 172.800,98.400 172.800 C 97.867 172.800,97.600 173.067,97.600 173.600 C 97.600 174.133,97.333 174.400,96.800 174.400 C 96.267 174.400,96.000 174.667,96.000 175.200 C 96.000 175.644,95.733 176.000,95.400 176.000 C 95.067 176.000,94.800 176.356,94.800 176.800 C 94.800 177.333,94.533 177.600,94.000 177.600 C 93.467 177.600,93.200 177.867,93.200 178.400 C 93.200 178.933,92.933 179.200,92.400 179.200 C 91.956 179.200,91.600 179.467,91.600 179.800 C 91.600 180.133,91.244 180.400,90.800 180.400 C 90.267 180.400,90.000 180.667,90.000 181.200 C 90.000 181.733,89.733 182.000,89.200 182.000 C 88.667 182.000,88.400 182.267,88.400 182.800 C 88.400 183.333,88.133 183.600,87.600 183.600 C 87.067 183.600,86.800 183.867,86.800 184.400 C 86.800 184.933,86.533 185.200,86.000 185.200 C 85.467 185.200,85.200 185.467,85.200 186.000 C 85.200 186.533,84.933 186.800,84.400 186.800 C 83.867 186.800,83.600 187.067,83.600 187.600 C 83.600 188.133,83.333 188.400,82.800 188.400 C 82.267 188.400,82.000 188.667,82.000 189.200 C 82.000 189.733,81.733 190.000,81.200 190.000 C 80.667 190.000,80.400 190.267,80.400 190.800 C 80.400 191.244,80.133 191.600,79.800 191.600 C 79.467 191.600,79.200 191.956,79.200 192.400 C 79.200 192.933,78.933 193.200,78.400 193.200 C 77.867 193.200,77.600 193.467,77.600 194.000 C 77.600 194.533,77.333 194.800,76.800 194.800 C 76.356 194.800,76.000 195.067,76.000 195.400 C 76.000 195.733,75.644 196.000,75.200 196.000 C 74.453 196.000,74.400 196.267,74.400 200.000 C 74.400 203.733,74.453 204.000,75.200 204.000 C 75.733 204.000,76.000 204.267,76.000 204.800 C 76.000 205.333,76.267 205.600,76.800 205.600 C 77.333 205.600,77.600 205.867,77.600 206.400 C 77.600 206.933,77.867 207.200,78.400 207.200 C 78.844 207.200,79.200 207.467,79.200 207.800 C 79.200 208.130,79.470 208.400,79.800 208.400 C 80.133 208.400,80.400 208.756,80.400 209.200 C 80.400 209.733,80.667 210.000,81.200 210.000 C 81.733 210.000,82.000 210.267,82.000 210.800 C 82.000 211.333,82.267 211.600,82.800 211.600 C 83.333 211.600,83.600 211.867,83.600 212.400 C 83.600 212.933,83.867 213.200,84.400 213.200 C 84.933 213.200,85.200 213.467,85.200 214.000 C 85.200 214.533,85.467 214.800,86.000 214.800 C 86.533 214.800,86.800 215.067,86.800 215.600 C 86.800 216.133,87.067 216.400,87.600 216.400 C 88.133 216.400,88.400 216.667,88.400 217.200 C 88.400 217.733,88.667 218.000,89.200 218.000 C 89.733 218.000,90.000 218.267,90.000 218.800 C 90.000 219.333,90.267 219.600,90.800 219.600 C 91.333 219.600,91.600 219.867,91.600 220.400 C 91.600 220.933,91.867 221.200,92.400 221.200 C 92.933 221.200,93.200 221.467,93.200 222.000 C 93.200 222.533,93.467 222.800,94.000 222.800 C 94.533 222.800,94.800 223.067,94.800 223.600 C 94.800 224.044,95.067 224.400,95.400 224.400 C 95.730 224.400,96.000 224.670,96.000 225.000 C 96.000 225.333,96.356 225.600,96.800 225.600 C 97.333 225.600,97.600 225.867,97.600 226.400 C 97.600 226.933,97.867 227.200,98.400 227.200 C 98.933 227.200,99.200 227.467,99.200 228.000 C 99.200 228.533,99.467 228.800,100.000 228.800 C 100.533 228.800,100.800 229.067,100.800 229.600 C 100.800 230.133,101.067 230.400,101.600 230.400 C 102.133 230.400,102.400 230.667,102.400 231.200 C 102.400 231.733,102.667 232.000,103.200 232.000 C 103.733 232.000,104.000 232.267,104.000 232.800 C 104.000 233.333,104.267 233.600,104.800 233.600 C 105.333 233.600,105.600 233.867,105.600 234.400 C 105.600 234.933,105.867 235.200,106.400 235.200 C 106.933 235.200,107.200 235.467,107.200 236.000 C 107.200 236.533,107.467 236.800,108.000 236.800 C 108.533 236.800,108.800 237.067,108.800 237.600 C 108.800 238.133,109.067 238.400,109.600 238.400 C 110.133 238.400,110.400 238.667,110.400 239.200 C 110.400 239.733,110.667 240.000,111.200 240.000 C 111.733 240.000,112.000 240.267,112.000 240.800 C 112.000 241.244,112.267 241.600,112.600 241.600 C 112.930 241.600,113.200 241.870,113.200 242.200 C 113.200 242.533,113.556 242.800,114.000 242.800 C 114.533 242.800,114.800 243.067,114.800 243.600 C 114.800 244.133,115.067 244.400,115.600 244.400 C 116.133 244.400,116.400 244.667,116.400 245.200 C 116.400 245.733,116.667 246.000,117.200 246.000 C 117.733 246.000,118.000 246.267,118.000 246.800 C 118.000 247.333,118.267 247.600,118.800 247.600 C 119.333 247.600,119.600 247.867,119.600 248.400 C 119.600 248.933,119.867 249.200,120.400 249.200 C 120.933 249.200,121.200 249.467,121.200 250.000 C 121.200 250.533,121.467 250.800,122.000 250.800 C 122.533 250.800,122.800 251.067,122.800 251.600 C 122.800 252.133,123.067 252.400,123.600 252.400 C 124.133 252.400,124.400 252.667,124.400 253.200 C 124.400 253.733,124.667 254.000,125.200 254.000 C 125.733 254.000,126.000 254.267,126.000 254.800 C 126.000 255.333,126.267 255.600,126.800 255.600 C 127.333 255.600,127.600 255.867,127.600 256.400 C 127.600 256.933,127.867 257.200,128.400 257.200 C 128.844 257.200,129.200 257.467,129.200 257.800 C 129.200 258.130,129.470 258.400,129.800 258.400 C 130.133 258.400,130.400 258.756,130.400 259.200 C 130.400 259.733,130.667 260.000,131.200 260.000 C 131.733 260.000,132.000 260.267,132.000 260.800 C 132.000 261.333,132.267 261.600,132.800 261.600 C 133.333 261.600,133.600 261.867,133.600 262.400 C 133.600 262.933,133.867 263.200,134.400 263.200 C 134.933 263.200,135.200 263.467,135.200 264.000 C 135.200 264.533,135.467 264.800,136.000 264.800 C 136.533 264.800,136.800 265.067,136.800 265.600 C 136.800 266.133,137.067 266.400,137.600 266.400 C 138.133 266.400,138.400 266.667,138.400 267.200 C 138.400 267.733,138.667 268.000,139.200 268.000 C 139.733 268.000,140.000 268.267,140.000 268.800 C 140.000 269.333,140.267 269.600,140.800 269.600 C 141.333 269.600,141.600 269.867,141.600 270.400 C 141.600 270.933,141.867 271.200,142.400 271.200 C 142.933 271.200,143.200 271.467,143.200 272.000 C 143.200 272.533,143.467 272.800,144.000 272.800 C 144.533 272.800,144.800 273.067,144.800 273.600 C 144.800 274.044,145.067 274.400,145.400 274.400 C 145.730 274.400,146.000 274.670,146.000 275.000 C 146.000 275.333,146.356 275.600,146.800 275.600 C 147.333 275.600,147.600 275.867,147.600 276.400 C 147.600 276.933,147.867 277.200,148.400 277.200 C 148.933 277.200,149.200 277.467,149.200 278.000 C 149.200 278.533,149.467 278.800,150.000 278.800 C 150.533 278.800,150.800 279.067,150.800 279.600 C 150.800 280.133,151.067 280.400,151.600 280.400 C 152.133 280.400,152.400 280.667,152.400 281.200 C 152.400 281.733,152.667 282.000,153.200 282.000 C 153.733 282.000,154.000 282.267,154.000 282.800 C 154.000 283.529,154.267 283.600,157.000 283.600 C 159.733 283.600,160.000 283.529,160.000 282.800 C 160.000 282.133,160.267 282.000,161.600 282.000 C 162.933 282.000,163.200 281.867,163.200 281.200 C 163.200 280.667,163.467 280.400,164.000 280.400 C 164.517 280.400,164.800 280.133,164.800 279.647 C 164.800 279.230,165.157 278.800,165.600 278.684 C 166.040 278.569,166.400 278.188,166.400 277.837 C 166.400 277.467,166.735 277.200,167.200 277.200 C 167.733 277.200,168.000 276.933,168.000 276.400 C 168.000 275.883,168.267 275.600,168.753 275.600 C 169.182 275.600,169.601 275.238,169.726 274.760 C 169.847 274.297,170.138 274.038,170.373 274.183 C 170.608 274.328,170.800 274.275,170.800 274.064 C 170.800 273.564,173.564 270.800,174.064 270.800 C 174.275 270.800,174.328 270.608,174.183 270.373 C 174.038 270.138,174.297 269.847,174.760 269.726 C 175.238 269.601,175.600 269.182,175.600 268.753 C 175.600 268.267,175.883 268.000,176.400 268.000 C 176.917 268.000,177.200 267.733,177.200 267.247 C 177.200 266.822,177.560 266.399,178.024 266.278 C 180.704 265.577,180.107 264.912,147.927 232.732 C 131.227 216.033,117.428 202.006,117.264 201.562 C 116.282 198.906,115.325 199.973,147.832 167.445 C 176.358 138.900,178.395 136.771,178.640 135.239 C 178.876 133.766,178.819 133.600,178.078 133.600 C 177.603 133.600,177.146 133.258,176.998 132.794 C 176.857 132.351,176.584 132.086,176.391 132.205 C 176.198 132.325,175.827 132.024,175.566 131.536 C 174.930 130.349,173.958 129.385,173.075 129.067 C 172.676 128.923,172.445 128.651,172.562 128.461 C 172.679 128.272,172.320 127.910,171.765 127.657 C 171.209 127.404,170.873 127.005,171.018 126.771 C 171.162 126.538,170.902 126.247,170.440 126.126 C 169.962 126.001,169.600 125.582,169.600 125.153 C 169.600 124.667,169.317 124.400,168.800 124.400 C 168.267 124.400,168.000 124.133,168.000 123.600 C 168.000 123.067,167.733 122.800,167.200 122.800 C 166.667 122.800,166.400 122.533,166.400 122.000 C 166.400 121.467,166.133 121.200,165.600 121.200 C 165.067 121.200,164.800 120.933,164.800 120.400 C 164.800 119.867,164.533 119.600,164.000 119.600 C 163.467 119.600,163.200 119.333,163.200 118.800 C 163.200 118.133,162.933 118.000,161.600 118.000 C 160.267 118.000,160.000 117.867,160.000 117.200 C 160.000 116.471,159.733 116.400,157.000 116.400 C 154.267 116.400,154.000 116.471,154.000 117.200 " stroke="none" fill="#436bec" fill-rule="evenodd"></path><path id="path2" d="M160.000 117.200 C 160.000 117.733,160.267 118.000,160.800 118.000 C 161.333 118.000,161.600 117.733,161.600 117.200 C 161.600 116.667,161.333 116.400,160.800 116.400 C 160.267 116.400,160.000 116.667,160.000 117.200 M238.400 117.200 C 238.400 117.733,238.133 118.000,237.600 118.000 C 237.067 118.000,236.800 118.267,236.800 118.800 C 236.800 119.333,236.533 119.600,236.000 119.600 C 235.467 119.600,235.200 119.867,235.200 120.400 C 235.200 120.933,234.933 121.200,234.400 121.200 C 233.867 121.200,233.600 121.467,233.600 122.000 C 233.600 122.533,233.333 122.800,232.800 122.800 C 232.267 122.800,232.000 123.067,232.000 123.600 C 232.000 124.133,231.733 124.400,231.200 124.400 C 230.667 124.400,230.400 124.667,230.400 125.200 C 230.400 125.644,230.133 126.000,229.800 126.000 C 229.467 126.000,229.200 126.356,229.200 126.800 C 229.200 127.333,228.933 127.600,228.400 127.600 C 227.867 127.600,227.600 127.867,227.600 128.400 C 227.600 128.933,227.333 129.200,226.800 129.200 C 226.356 129.200,226.000 129.467,226.000 129.800 C 226.000 130.133,225.644 130.400,225.200 130.400 C 224.667 130.400,224.400 130.667,224.400 131.200 C 224.400 131.733,224.133 132.000,223.600 132.000 C 223.067 132.000,222.800 132.267,222.800 132.800 C 222.800 133.377,222.533 133.600,221.842 133.600 C 218.741 133.600,220.044 135.042,252.203 167.203 C 285.255 200.257,284.342 199.230,282.915 201.781 C 282.707 202.152,268.821 216.178,252.056 232.949 C 224.911 260.105,221.549 263.604,221.335 264.921 C 221.122 266.239,221.188 266.400,221.948 266.400 C 222.533 266.400,222.800 266.650,222.800 267.200 C 222.800 267.733,223.067 268.000,223.600 268.000 C 224.133 268.000,224.400 268.267,224.400 268.800 C 224.400 269.333,224.667 269.600,225.200 269.600 C 225.733 269.600,226.000 269.867,226.000 270.400 C 226.000 270.933,226.267 271.200,226.800 271.200 C 227.333 271.200,227.600 271.467,227.600 272.000 C 227.600 272.533,227.867 272.800,228.400 272.800 C 228.933 272.800,229.200 273.067,229.200 273.600 C 229.200 274.044,229.467 274.400,229.800 274.400 C 230.130 274.400,230.400 274.670,230.400 275.000 C 230.400 275.333,230.756 275.600,231.200 275.600 C 231.733 275.600,232.000 275.867,232.000 276.400 C 232.000 276.933,232.267 277.200,232.800 277.200 C 233.333 277.200,233.600 277.467,233.600 278.000 C 233.600 278.533,233.867 278.800,234.400 278.800 C 234.933 278.800,235.200 279.067,235.200 279.600 C 235.200 280.133,235.467 280.400,236.000 280.400 C 236.533 280.400,236.800 280.667,236.800 281.200 C 236.800 281.733,237.067 282.000,237.600 282.000 C 238.133 282.000,238.400 282.267,238.400 282.800 C 238.400 283.544,238.667 283.600,242.200 283.600 C 245.733 283.600,246.000 283.544,246.000 282.800 C 246.000 282.267,246.267 282.000,246.800 282.000 C 247.333 282.000,247.600 281.733,247.600 281.200 C 247.600 280.667,247.867 280.400,248.400 280.400 C 248.933 280.400,249.200 280.133,249.200 279.600 C 249.200 279.067,249.467 278.800,250.000 278.800 C 250.533 278.800,250.800 278.533,250.800 278.000 C 250.800 277.467,251.067 277.200,251.600 277.200 C 252.133 277.200,252.400 276.933,252.400 276.400 C 252.400 275.867,252.667 275.600,253.200 275.600 C 253.644 275.600,254.000 275.333,254.000 275.000 C 254.000 274.670,254.287 274.400,254.637 274.400 C 254.988 274.400,255.365 274.057,255.474 273.637 C 255.584 273.217,256.017 272.784,256.437 272.674 C 256.857 272.565,257.200 272.188,257.200 271.837 C 257.200 271.487,257.470 271.200,257.800 271.200 C 258.133 271.200,258.400 270.844,258.400 270.400 C 258.400 269.867,258.667 269.600,259.200 269.600 C 259.733 269.600,260.000 269.333,260.000 268.800 C 260.000 268.267,260.267 268.000,260.800 268.000 C 261.333 268.000,261.600 267.733,261.600 267.200 C 261.600 266.667,261.867 266.400,262.400 266.400 C 262.933 266.400,263.200 266.133,263.200 265.600 C 263.200 265.067,263.467 264.800,264.000 264.800 C 264.533 264.800,264.800 264.533,264.800 264.000 C 264.800 263.467,265.067 263.200,265.600 263.200 C 266.133 263.200,266.400 262.933,266.400 262.400 C 266.400 261.867,266.667 261.600,267.200 261.600 C 267.733 261.600,268.000 261.333,268.000 260.800 C 268.000 260.267,268.267 260.000,268.800 260.000 C 269.333 260.000,269.600 259.733,269.600 259.200 C 269.600 258.667,269.867 258.400,270.400 258.400 C 270.844 258.400,271.200 258.133,271.200 257.800 C 271.200 257.470,271.487 257.200,271.837 257.200 C 272.188 257.200,272.569 256.840,272.684 256.400 C 272.799 255.960,273.159 255.600,273.484 255.600 C 273.809 255.600,274.169 255.240,274.284 254.800 C 274.399 254.360,274.742 254.000,275.047 254.000 C 275.351 254.000,275.600 253.640,275.600 253.200 C 275.600 252.667,275.867 252.400,276.400 252.400 C 276.933 252.400,277.200 252.133,277.200 251.600 C 277.200 251.067,277.467 250.800,278.000 250.800 C 278.533 250.800,278.800 250.533,278.800 250.000 C 278.800 249.467,279.067 249.200,279.600 249.200 C 280.133 249.200,280.400 248.933,280.400 248.400 C 280.400 247.867,280.667 247.600,281.200 247.600 C 281.733 247.600,282.000 247.333,282.000 246.800 C 282.000 246.267,282.267 246.000,282.800 246.000 C 283.333 246.000,283.600 245.733,283.600 245.200 C 283.600 244.667,283.867 244.400,284.400 244.400 C 284.933 244.400,285.200 244.133,285.200 243.600 C 285.200 243.067,285.467 242.800,286.000 242.800 C 286.444 242.800,286.800 242.533,286.800 242.200 C 286.800 241.870,287.087 241.600,287.437 241.600 C 287.788 241.600,288.169 241.240,288.284 240.800 C 288.399 240.360,288.759 240.000,289.084 240.000 C 289.409 240.000,289.769 239.640,289.884 239.200 C 289.999 238.760,290.359 238.400,290.684 238.400 C 291.009 238.400,291.369 238.040,291.484 237.600 C 291.599 237.160,291.942 236.800,292.247 236.800 C 292.551 236.800,292.800 236.440,292.800 236.000 C 292.800 235.467,293.067 235.200,293.600 235.200 C 294.133 235.200,294.400 234.933,294.400 234.400 C 294.400 233.867,294.667 233.600,295.200 233.600 C 295.733 233.600,296.000 233.333,296.000 232.800 C 296.000 232.267,296.267 232.000,296.800 232.000 C 297.333 232.000,297.600 231.733,297.600 231.200 C 297.600 230.667,297.867 230.400,298.400 230.400 C 298.933 230.400,299.200 230.133,299.200 229.600 C 299.200 229.067,299.467 228.800,300.000 228.800 C 300.533 228.800,300.800 228.533,300.800 228.000 C 300.800 227.467,301.067 227.200,301.600 227.200 C 302.133 227.200,302.400 226.933,302.400 226.400 C 302.400 225.867,302.667 225.600,303.200 225.600 C 303.644 225.600,304.000 225.333,304.000 225.000 C 304.000 224.670,304.287 224.400,304.637 224.400 C 304.988 224.400,305.369 224.040,305.484 223.600 C 305.599 223.160,305.959 222.800,306.284 222.800 C 306.609 222.800,306.969 222.440,307.084 222.000 C 307.199 221.560,307.542 221.200,307.847 221.200 C 308.151 221.200,308.400 220.840,308.400 220.400 C 308.400 219.867,308.667 219.600,309.200 219.600 C 309.733 219.600,310.000 219.333,310.000 218.800 C 310.000 218.267,310.267 218.000,310.800 218.000 C 311.333 218.000,311.600 217.733,311.600 217.200 C 311.600 216.667,311.867 216.400,312.400 216.400 C 312.933 216.400,313.200 216.133,313.200 215.600 C 313.200 215.067,313.467 214.800,314.000 214.800 C 314.533 214.800,314.800 214.533,314.800 214.000 C 314.800 213.467,315.067 213.200,315.600 213.200 C 316.133 213.200,316.400 212.933,316.400 212.400 C 316.400 211.867,316.667 211.600,317.200 211.600 C 317.733 211.600,318.000 211.333,318.000 210.800 C 318.000 210.267,318.267 210.000,318.800 210.000 C 319.333 210.000,319.600 209.733,319.600 209.200 C 319.600 208.667,319.867 208.400,320.400 208.400 C 320.840 208.400,321.200 208.151,321.200 207.847 C 321.200 207.542,321.560 207.199,322.000 207.084 C 322.440 206.969,322.800 206.609,322.800 206.284 C 322.800 205.959,323.160 205.599,323.600 205.484 C 324.040 205.369,324.400 204.988,324.400 204.637 C 324.400 204.287,324.670 204.000,325.000 204.000 C 325.493 204.000,325.600 203.289,325.600 200.000 C 325.600 196.711,325.493 196.000,325.000 196.000 C 324.670 196.000,324.400 195.730,324.400 195.400 C 324.400 195.067,324.044 194.800,323.600 194.800 C 323.067 194.800,322.800 194.533,322.800 194.000 C 322.800 193.467,322.533 193.200,322.000 193.200 C 321.467 193.200,321.200 192.933,321.200 192.400 C 321.200 191.867,320.933 191.600,320.400 191.600 C 319.867 191.600,319.600 191.333,319.600 190.800 C 319.600 190.267,319.333 190.000,318.800 190.000 C 318.267 190.000,318.000 189.733,318.000 189.200 C 318.000 188.667,317.733 188.400,317.200 188.400 C 316.667 188.400,316.400 188.133,316.400 187.600 C 316.400 187.067,316.133 186.800,315.600 186.800 C 315.067 186.800,314.800 186.533,314.800 186.000 C 314.800 185.467,314.533 185.200,314.000 185.200 C 313.467 185.200,313.200 184.933,313.200 184.400 C 313.200 183.867,312.933 183.600,312.400 183.600 C 311.867 183.600,311.600 183.333,311.600 182.800 C 311.600 182.267,311.333 182.000,310.800 182.000 C 310.267 182.000,310.000 181.733,310.000 181.200 C 310.000 180.667,309.733 180.400,309.200 180.400 C 308.756 180.400,308.400 180.133,308.400 179.800 C 308.400 179.470,308.130 179.200,307.800 179.200 C 307.467 179.200,307.200 178.844,307.200 178.400 C 307.200 177.867,306.933 177.600,306.400 177.600 C 305.867 177.600,305.600 177.333,305.600 176.800 C 305.600 176.267,305.333 176.000,304.800 176.000 C 304.267 176.000,304.000 175.733,304.000 175.200 C 304.000 174.667,303.733 174.400,303.200 174.400 C 302.667 174.400,302.400 174.133,302.400 173.600 C 302.400 173.067,302.133 172.800,301.600 172.800 C 301.067 172.800,300.800 172.533,300.800 172.000 C 300.800 171.467,300.533 171.200,300.000 171.200 C 299.467 171.200,299.200 170.933,299.200 170.400 C 299.200 169.867,298.933 169.600,298.400 169.600 C 297.867 169.600,297.600 169.333,297.600 168.800 C 297.600 168.267,297.333 168.000,296.800 168.000 C 296.267 168.000,296.000 167.733,296.000 167.200 C 296.000 166.667,295.733 166.400,295.200 166.400 C 294.667 166.400,294.400 166.133,294.400 165.600 C 294.400 165.067,294.133 164.800,293.600 164.800 C 293.067 164.800,292.800 164.533,292.800 164.000 C 292.800 163.556,292.533 163.200,292.200 163.200 C 291.870 163.200,291.600 162.930,291.600 162.600 C 291.600 162.267,291.244 162.000,290.800 162.000 C 290.267 162.000,290.000 161.733,290.000 161.200 C 290.000 160.667,289.733 160.400,289.200 160.400 C 288.667 160.400,288.400 160.133,288.400 159.600 C 288.400 159.067,288.133 158.800,287.600 158.800 C 287.067 158.800,286.800 158.533,286.800 158.000 C 286.800 157.467,286.533 157.200,286.000 157.200 C 285.467 157.200,285.200 156.933,285.200 156.400 C 285.200 155.867,284.933 155.600,284.400 155.600 C 283.867 155.600,283.600 155.333,283.600 154.800 C 283.600 154.267,283.333 154.000,282.800 154.000 C 282.267 154.000,282.000 153.733,282.000 153.200 C 282.000 152.667,281.733 152.400,281.200 152.400 C 280.667 152.400,280.400 152.133,280.400 151.600 C 280.400 151.067,280.133 150.800,279.600 150.800 C 279.067 150.800,278.800 150.533,278.800 150.000 C 278.800 149.467,278.533 149.200,278.000 149.200 C 277.467 149.200,277.200 148.933,277.200 148.400 C 277.200 147.867,276.933 147.600,276.400 147.600 C 275.867 147.600,275.600 147.333,275.600 146.800 C 275.600 146.356,275.333 146.000,275.000 146.000 C 274.670 146.000,274.400 145.730,274.400 145.400 C 274.400 145.067,274.044 144.800,273.600 144.800 C 273.067 144.800,272.800 144.533,272.800 144.000 C 272.800 143.467,272.533 143.200,272.000 143.200 C 271.467 143.200,271.200 142.933,271.200 142.400 C 271.200 141.867,270.933 141.600,270.400 141.600 C 269.867 141.600,269.600 141.333,269.600 140.800 C 269.600 140.267,269.333 140.000,268.800 140.000 C 268.267 140.000,268.000 139.733,268.000 139.200 C 268.000 138.667,267.733 138.400,267.200 138.400 C 266.667 138.400,266.400 138.133,266.400 137.600 C 266.400 137.067,266.133 136.800,265.600 136.800 C 265.067 136.800,264.800 136.533,264.800 136.000 C 264.800 135.467,264.533 135.200,264.000 135.200 C 263.467 135.200,263.200 134.933,263.200 134.400 C 263.200 133.867,262.933 133.600,262.400 133.600 C 261.867 133.600,261.600 133.333,261.600 132.800 C 261.600 132.267,261.333 132.000,260.800 132.000 C 260.267 132.000,260.000 131.733,260.000 131.200 C 260.000 130.667,259.733 130.400,259.200 130.400 C 258.756 130.400,258.400 130.133,258.400 129.800 C 258.400 129.470,258.130 129.200,257.800 129.200 C 257.467 129.200,257.200 128.844,257.200 128.400 C 257.200 127.867,256.933 127.600,256.400 127.600 C 255.867 127.600,255.600 127.333,255.600 126.800 C 255.600 126.267,255.333 126.000,254.800 126.000 C 254.267 126.000,254.000 125.733,254.000 125.200 C 254.000 124.667,253.733 124.400,253.200 124.400 C 252.667 124.400,252.400 124.133,252.400 123.600 C 252.400 123.067,252.133 122.800,251.600 122.800 C 251.067 122.800,250.800 122.533,250.800 122.000 C 250.800 121.467,250.533 121.200,250.000 121.200 C 249.467 121.200,249.200 120.933,249.200 120.400 C 249.200 119.867,248.933 119.600,248.400 119.600 C 247.867 119.600,247.600 119.333,247.600 118.800 C 247.600 118.267,247.333 118.000,246.800 118.000 C 246.267 118.000,246.000 117.733,246.000 117.200 C 246.000 116.456,245.733 116.400,242.200 116.400 C 238.667 116.400,238.400 116.456,238.400 117.200 M160.000 282.800 C 160.000 283.333,160.267 283.600,160.800 283.600 C 161.333 283.600,161.600 283.333,161.600 282.800 C 161.600 282.267,161.333 282.000,160.800 282.000 C 160.267 282.000,160.000 282.267,160.000 282.800 " stroke="none" fill="#c4d4fb" fill-rule="evenodd"></path><path id="path3" d="M178.614 135.577 C 178.230 136.199,178.842 136.864,189.406 147.289 C 197.275 155.056,199.366 157.331,199.145 157.889 C 198.991 158.280,189.670 167.779,178.432 178.999 C 167.195 190.218,158.000 199.668,158.000 200.000 C 158.000 200.332,167.195 209.782,178.432 221.001 C 189.670 232.221,198.992 241.724,199.148 242.120 C 199.407 242.775,180.126 262.676,178.790 263.133 C 178.268 263.312,178.289 264.800,178.813 264.800 C 179.040 264.800,179.362 264.431,179.529 263.981 C 179.927 262.904,199.149 243.670,200.141 243.355 C 201.055 243.065,220.800 262.508,220.800 263.697 C 220.800 264.084,220.980 264.400,221.200 264.400 C 221.420 264.400,221.600 264.179,221.600 263.909 C 221.600 263.639,235.325 249.693,252.100 232.919 C 283.481 201.539,283.605 201.403,282.973 199.005 C 282.554 197.411,220.800 135.221,220.800 136.392 C 220.800 137.691,200.933 156.982,200.017 156.572 C 198.861 156.055,179.600 136.804,179.600 136.165 C 179.600 135.484,178.922 135.080,178.614 135.577 M201.200 158.318 C 201.200 158.492,210.377 167.807,221.594 179.018 C 232.811 190.228,241.990 199.670,241.993 200.000 C 241.996 200.330,232.895 209.690,221.768 220.800 C 210.642 231.910,201.355 241.335,201.131 241.745 C 200.678 242.573,158.800 201.274,158.800 200.000 C 158.800 199.279,199.998 158.000,200.716 158.000 C 200.982 158.000,201.200 158.143,201.200 158.318 " stroke="none" fill="#83cba4" fill-rule="evenodd"></path><path id="path4" d="M148.000 167.218 C 115.631 199.667,116.356 198.859,117.265 201.489 C 117.635 202.562,178.291 263.305,178.813 263.126 C 180.135 262.672,199.404 242.768,199.148 242.120 C 198.992 241.724,189.670 232.221,178.432 221.001 C 167.195 209.782,158.000 200.332,158.000 200.000 C 158.000 199.668,167.195 190.218,178.432 178.999 C 197.968 159.495,199.994 157.316,199.112 156.753 C 198.900 156.618,194.197 152.015,188.663 146.524 L 178.600 136.542 148.000 167.218 " stroke="none" fill="#4dac84" fill-rule="evenodd"></path></g></svg>